<?xml version="1.0" encoding="utf-8"?>
<!-- Generator: Adobe Illustrator 16.0.0, SVG Export Plug-In . SVG Version: 6.00 Build 0)  -->
<!DOCTYPE svg PUBLIC "-//W3C//DTD SVG 1.1//EN" "http://www.w3.org/Graphics/SVG/1.1/DTD/svg11.dtd">
<svg version="1.1" id="Layer_1" xmlns="http://www.w3.org/2000/svg" xmlns:xlink="http://www.w3.org/1999/xlink" x="0px" y="0px"
	 width="126.908px" height="31px" viewBox="0 0 126.908 31" enable-background="new 0 0 126.908 31" xml:space="preserve">
<g>
	<path fill="#0D2A40" d="M37.167,20.524c0.527-0.115,0.634-0.106,0.67-0.713l0.038-1.07c0.038-1.391-0.457-2.591-2.78-2.591
		c-1.049,0-2.397,0.456-2.397,1.293c0,0.602-0.292,1.316-0.53,1.604c-0.723,0.879-1.75,0.733-2.12,0.493
		c-0.283-0.184-0.426-0.551-0.426-0.889c0-1.998,2.951-4.218,6.686-4.218c2.698,0,4.224,1.686,4.224,4.076l-0.167,6.029
		c-0.076,1.73,0.283,3.646,1.743,3.646c0.375,0,0.712-0.112,0.938-0.226c0.187-0.114,0.374-0.263,0.487-0.263
		c0.149,0,0.263,0.226,0.263,0.489c0,0.188-1.312,1.653-3.147,1.653c-0.9,0-1.822-0.338-2.458-1.165
		c-0.15-0.226-0.374-0.526-0.6-0.526c-0.262,0-0.806,0.486-1.555,0.9c-0.825,0.45-1.509,0.818-2.818,0.818
		c-1.086,0-2.061-0.291-2.697-0.854c-0.711-0.638-1.161-1.578-1.161-2.631c0-1.463,0.714-3.296,2.774-4.297
		C34.159,21.097,37.167,20.524,37.167,20.524z M34.611,27.745c0.749,0,2.156-0.647,2.532-1.023c0.449-0.449,0.648-0.995,0.648-1.784
		l0.03-2.249c0-0.415-0.15-0.489-0.375-0.489c-0.226,0-1.05,0.094-1.724,0.317c-2.21,0.752-3.595,1.69-3.595,3.419
		C32.128,26.855,32.7,27.745,34.611,27.745z"/>
	<circle fill="#0D2A40" cx="48.662" cy="2.12" r="2.118"/>
	<circle fill="#F67D4B" cx="48.662" cy="10.249" r="2.118"/>
	<path fill="#0D2A40" d="M19.349,18.907c0-1.448,0-1.299-1.004-1.968l-0.334-0.224c-0.149-0.148-0.149-0.557,0.037-0.668
		c0.854-0.297,2.924-1.264,3.853-1.821c0.187,0.036,0.298,0.111,0.298,0.26v2.156c0,0.186,0.037,0.297,0.111,0.334
		c1.302-1.078,2.61-2.136,3.975-2.136c0.922,0,1.659,0.59,1.659,1.476c0,1.217-0.958,1.637-1.547,1.637
		c-0.369,0-0.554-0.111-0.812-0.258c-0.553-0.369-1.082-0.588-1.598-0.588c-0.59,0-1.096,0.389-1.39,0.795
		c-0.369,0.517-0.397,1.42-0.397,2.683l-0.023,4.852c0,2.676,0.066,3.097,1.479,3.208l1.354,0.141
		c0.26,0.186,0.202,0.904-0.058,1.015c-1.748-0.074-2.825-0.11-4.126-0.11c-1.339,0-2.553,0.036-3.521,0.11
		c-0.26-0.11-0.342-0.769-0.082-0.955l0.731-0.184c1.375-0.223,1.421-0.531,1.421-3.208L19.349,18.907z"/>
	<path fill="#F67D4B" d="M87.677,18.907c0-1.448,0-1.299-1.004-1.968l-0.334-0.224c-0.15-0.148-0.15-0.557,0.037-0.668
		c0.854-0.297,2.824-1.264,3.753-1.821c0.187,0.036,0.298,0.111,0.298,0.26v2.156c0,0.186,0.037,0.297,0.111,0.334
		c1.303-1.078,2.609-2.136,3.976-2.136c0.921,0,1.659,0.59,1.659,1.476c0,1.217-0.958,1.637-1.548,1.637
		c-0.369,0-0.554-0.111-0.812-0.258c-0.554-0.369-1.082-0.588-1.599-0.588c-0.59,0-1.096,0.389-1.39,0.795
		c-0.37,0.517-0.398,1.42-0.398,2.683l-0.022,4.852c0,2.676,0.073,3.123,1.486,3.234l1.354,0.141
		c0.26,0.186,0.194,0.878-0.065,0.989c-1.748-0.074-2.826-0.11-4.127-0.11c-1.339,0-2.453,0.036-3.42,0.11
		c-0.26-0.11-0.334-0.743-0.073-0.929l0.73-0.184c1.376-0.223,1.413-0.557,1.413-3.233L87.677,18.907z"/>
	<path fill="#0D2A40" d="M50.339,19v6.627c0,2.676,0.074,2.944,1.412,3.129l0.781,0.111c0.259,0.187,0.186,0.923-0.075,1.034
		c-1.115-0.074-2.151-0.11-3.451-0.11c-1.338,0-2.779,0.016-3.819,0.09c-0.261-0.11-0.336-0.847-0.075-1.033l0.78-0.111
		c1.376-0.186,1.413-0.453,1.413-3.129v-6.442"/>
	<path fill="#0D2A40" d="M47.306,24.855v-6.442c0-2.459-0.093-2.583-0.553-2.672l-0.809-0.167c-0.26-0.187-0.228-1.13,0.056-1.13
		c1.081,0,1.668,0.002,3.007,0.002c1.3,0,1.312-0.001,2.539,0.035c0.283,0.009,0.331,0.818,0.072,1.004l-0.929,0.273
		c-0.247,0.073-0.349,0.315-0.349,2.674v6.628"/>
	<path fill="#0D2A40" d="M56.916,19.103c0-1.51,0-1.635-1.003-2.304l-0.335-0.224c-0.148-0.148-0.148-0.557,0.037-0.668
		c0.855-0.297,2.974-1.264,3.718-1.822c0.147,0,0.333,0.074,0.408,0.261c-0.075,0.854-0.075,1.391-0.075,1.725
		c0,0.223-0.012,0.375,0.248,0.375c1.561-0.967,2.85-1.817,4.894-1.817c3.396,0,4.476,2.095,4.476,4.587v6.393
		c0,2.676,0.074,2.943,1.412,3.129l0.817,0.111c0.261,0.186,0.187,0.923-0.074,1.033c-1.115-0.074-2.193-0.11-3.494-0.11
		c-1.338,0-2.453,0.036-3.457,0.11c-0.26-0.11-0.334-0.847-0.073-1.033l0.706-0.111c1.375-0.224,1.412-0.453,1.412-3.129v-5.539
		c0-2.437-0.897-3.343-3.121-3.343c-1.576,0-2.761,1.238-3.282,1.943c-0.483,0.633-0.463,0.822-0.463,1.9v5.04
		c0,2.676,0.075,2.905,1.413,3.129l0.668,0.111c0.26,0.186,0.186,0.923-0.074,1.033c-1.003-0.074-2.082-0.11-3.382-0.11
		c-1.339,0-2.454,0.036-3.495,0.11c-0.26-0.11-0.335-0.847-0.075-1.033l0.781-0.111c1.375-0.186,1.413-0.453,1.413-3.129V19.103z"/>
	<path fill="#F67D4B" d="M78.724,16.561c-0.633,0-0.671,0.003-0.671,0.784v6.895c0,2.156,0.261,4.126,2.714,4.126
		c0.373,0,0.707-0.074,1.004-0.186c0.335-0.11,0.817-0.52,0.929-0.52c0.299,0,0.447,0.41,0.373,0.632
		C82.401,29.071,81.064,30,79.169,30c-3.197,0-3.865-1.785-3.865-4.014l0.018-8.517c0-1.003-0.553-0.909-1.296-0.909h-1.23
		c-0.222-0.149-0.26-0.792-0.111-1.015c1.079-0.335,2.655-0.788,3.026-1.123c0.483-0.446,1.229-1.41,1.601-2.154
		c0.185-0.073,0.632-0.073,0.78,0.187v1.672c0,0.669,0.037,0.707,0.669,0.707h4.472c0.445,0.334,0.371,1.502,0.035,1.726H78.724z"/>
	<path fill="#F67D4B" d="M101.052,20.328c-0.967,0-1.004,0.074-1.004,1.003c0,3.754,2.258,6.589,6.234,6.589
		c1.228,0,2.269-0.373,3.419-1.822c0.372-0.111,0.632,0.11,0.67,0.446c-1.226,2.528-3.903,3.457-5.836,3.457
		c-2.416,0-4.312-1.041-5.389-2.454c-1.116-1.449-1.688-3.071-1.688-4.707c0-4.571,2.481-8.526,7.598-8.526
		c3.196,0,5.297,2.165,5.297,4.395c0,0.521,0.001,1.069-0.231,1.359c-0.186,0.232-0.632,0.26-2.193,0.26H101.052z M103.451,18.852
		c2.75,0,3.783-0.143,3.913-0.327c0.077-0.11,0.167-0.283,0.167-0.767c0-1.04-0.736-2.202-2.893-2.202
		c-2.072,0-4.05,1.882-4.087,3.108c0,0.074,0,0.187,0.26,0.187H103.451z"/>
	<path fill="#F67D4B" d="M116.589,20.328c-0.967,0-1.004,0.074-1.004,1.003c0,3.754,2.258,6.589,6.234,6.589
		c1.228,0,2.269-0.373,3.419-1.822c0.372-0.111,0.632,0.11,0.67,0.446c-1.226,2.528-3.903,3.457-5.836,3.457
		c-2.416,0-4.312-1.041-5.389-2.454c-1.116-1.449-1.688-3.071-1.688-4.707c0-4.571,2.481-8.526,7.598-8.526
		c3.196,0,5.297,2.165,5.297,4.395c0,0.521,0.001,1.069-0.231,1.359c-0.186,0.232-0.632,0.26-2.193,0.26H116.589z M118.988,18.852
		c2.75,0,3.783-0.143,3.913-0.327c0.077-0.11,0.167-0.283,0.167-0.767c0-1.04-0.736-2.202-2.893-2.202
		c-2.072,0-4.05,1.882-4.087,3.108c0,0.074,0,0.187,0.26,0.187H118.988z"/>
	<path fill="#0D2A40" d="M2.412,15.551c0-2.68-0.028-3.016-1.34-3.155l-0.726-0.084c-0.196-0.195-0.3-0.862-0.077-1.001
		C1.525,11.2,3.564,11.06,6.636,11.06c2.346,0,4.216,0.224,5.474,0.95c1.284,0.754,1.956,1.987,1.956,3.746
		c0,1.647-1.201,2.904-3.156,3.547c-0.111,0.027-0.168,0.111-0.168,0.167c0,0.056,0.057,0.112,0.223,0.167
		c2.123,0.336,4.497,1.704,4.497,4.86c0,1.284-0.419,2.681-1.703,3.713c-1.312,1.089-3.155,1.564-6.338,1.564
		c-1.229,0-2.402-0.084-3.463-0.084c-1.228,0-2.541,0.028-3.77,0.084c-0.223-0.112-0.252-0.705-0.055-0.9l0.615-0.083
		c1.311-0.167,1.563-0.162,1.563-3.122L2.412,15.551z M5.549,18.521c0,0.725,0.083,0.753,1.2,0.753c2.624,0,3.826-1.033,3.826-3.546
		c0-2.458-1.815-3.436-3.546-3.436c-1.396,0-1.479,0.056-1.479,1.173V18.521z M5.549,25.082c0,2.542,0.278,3.574,2.708,3.574
		c1.926,0,3.63-1.257,3.63-3.741c0-2.876-1.955-4.58-5.054-4.58c-1.229,0-1.284,0.168-1.284,0.727V25.082z"/>
	<circle fill="#0D2A40" cx="52.727" cy="6.091" r="2.118"/>
	<circle fill="#0D2A40" cx="44.597" cy="6.091" r="2.118"/>
</g>
</svg>
